<svg width="30" height="30" fill="none" xmlns="http://www.w3.org/2000/svg"><path d="M15 0C6.667 0 0 6.667 0 15s6.667 15 15 15 15-6.667 15-15S23.333 0 15 0zm0 11.667c1.833 0 3.333 1.5 3.333 3.333 0 1.833-1.5 3.333-3.333 3.333A3.343 3.343 0 0111.667 15c0-1.833 1.5-3.333 3.333-3.333zm4.667-3.334c0-1.166 1-2 2-2s2 1 2 2-.834 2-2 2c-1.167 0-2-.833-2-2zM15 26.667C8.5 26.667 3.333 21.5 3.333 15h5c0 3.667 3 6.667 6.667 6.667s6.667-3 6.667-6.667h5c0 6.5-5.167 11.667-11.667 11.667z" fill="#5C5C5E"/></svg>