<svg width="30" height="30" fill="none" xmlns="http://www.w3.org/2000/svg"><path fill="#C8C8C8" d="M0 0h30v30H0z"/><path fill="#fff" d="M-1430-5332H490V110h-1920z"/><path d="M17.505 14.74l-3.51-1.638c-.306-.143-.557.017-.557.356v3.084c0 .34.251.499.557.356l3.508-1.637c.308-.144.308-.378.002-.522zM15 0C6.716 0 0 6.716 0 15c0 8.284 6.716 15 15 15 8.284 0 15-6.716 15-15 0-8.284-6.716-15-15-15zm0 21.094c-7.678 0-7.813-.692-7.813-6.094S7.322 8.906 15 8.906s7.813.692 7.813 6.094-.135 6.094-7.813 6.094z" fill="#5C5C5E"/></svg>